<svg width="76" height="77" viewBox="0 0 76 77" fill="none" xmlns="http://www.w3.org/2000/svg">
<rect y="0.532074" width="12" height="5" rx="2" fill="#D73263"/>
<path d="M6.92894 0.744247L8.78722 0.457505C10.4247 0.204834 11.957 1.32744 12.2096 2.96491L21.837 65.3568V65.3568C19.1733 65.7679 16.6806 63.9417 16.2696 61.2779L6.92894 0.744247Z" fill="#D73263"/>
<path d="M69 61.5321C66.5 60.0321 22.4872 65.0252 20 58.5321C18.202 53.8384 17.4358 60.1112 17.1492 63.9482C17.0438 65.3596 18.1746 66.5321 19.59 66.5321H67.7134C68.5208 66.5321 69.2944 66.1474 69.629 65.4126C70.1558 64.2557 70.5929 62.4879 69 61.5321Z" fill="#D73263"/>
<path d="M18 53H63L70.5 50.5V50.5C69.622 54.3048 66.234 57 62.3292 57H18V53Z" fill="#D73263"/>
<path d="M36 70C36 73.866 32.866 77 29 77C25.134 77 22 73.866 22 70C22 66.134 25.134 63 29 63C32.866 63 36 66.134 36 70ZM25.9381 70C25.9381 71.6911 27.3089 73.0619 29 73.0619C30.6911 73.0619 32.0619 71.6911 32.0619 70C32.0619 68.3089 30.6911 66.9381 29 66.9381C27.3089 66.9381 25.9381 68.3089 25.9381 70Z" fill="#D73263"/>
<path d="M65 70C65 73.866 61.866 77 58 77C54.134 77 51 73.866 51 70C51 66.134 54.134 63 58 63C61.866 63 65 66.134 65 70ZM54.9381 70C54.9381 71.6911 56.3089 73.0619 58 73.0619C59.6911 73.0619 61.0619 71.6911 61.0619 70C61.0619 68.3089 59.6911 66.9381 58 66.9381C56.3089 66.9381 54.9381 68.3089 54.9381 70Z" fill="#D73263"/>
<rect x="16" y="34" width="54" height="4" fill="#D73263"/>
<path d="M13 15H67.4235C71.2071 15 74.4247 17.7605 75 21.5V21.5L71.5 20H13V15Z" fill="#D73263"/>
<rect x="31" y="19" width="4" height="34" fill="#D73263"/>
<rect x="50" y="19" width="4" height="35" fill="#D73263"/>
<path d="M67.9265 17.0024C71.4277 15.9949 70.9269 17.0001 70.9269 17.0001L72.926 18.5057L74.9239 21.5184L70.4863 50.6081L62.8976 53.1781L65.3995 51.1666L66.4008 49.6587L68.9133 34.0828L69.4157 31.068L69.9189 27.0486C69.9189 27.0486 70.9233 21.5215 70.4241 20.5172C69.9248 19.5128 64.4252 18.0099 67.9265 17.0024Z" fill="#D73263"/>
</svg>
